<svg width="20" height="16" viewBox="0 0 20 16" fill="none" xmlns="http://www.w3.org/2000/svg">
   <path d="M9.8 8.9L7.4 9.5L6.325 8.7C6.275 8.66667 6.14167 8.63333 5.925 8.6L5.8 8.65C5.65 8.68333 5.54167 8.771 5.475 8.913C5.40833 9.055 5.41667 9.19233 5.5 9.325L6.65 11.325C6.71667 11.425 6.8 11.496 6.9 11.538C7 11.58 7.10833 11.584 7.225 11.55L15.75 9.3C16 9.23333 16.1877 9.079 16.313 8.837C16.4383 8.595 16.4673 8.34933 16.4 8.1C16.3327 7.85067 16.187 7.66333 15.963 7.538C15.739 7.41267 15.5013 7.38333 15.25 7.45L12.8 8.1L9.075 4.6C8.99167 4.51667 8.89167 4.46267 8.775 4.438C8.65833 4.41333 8.54167 4.41733 8.425 4.45L8.3 4.475C8.06667 4.525 7.904 4.65833 7.812 4.875C7.72 5.09167 7.73267 5.3 7.85 5.5L9.8 8.9ZM2 16C1.45 16 0.979333 15.8043 0.588 15.413C0.196667 15.0217 0.000666667 14.5507 0 14V10.625C0 10.4417 0.0583333 10.2833 0.175 10.15C0.291667 10.0167 0.441667 9.93333 0.625 9.9C1.025 9.76667 1.35433 9.525 1.613 9.175C1.87167 8.825 2.00067 8.43333 2 8C1.99933 7.56667 1.87033 7.175 1.613 6.825C1.35567 6.475 1.02633 6.23333 0.625 6.1C0.441667 6.06667 0.291667 5.98333 0.175 5.85C0.0583333 5.71667 0 5.55833 0 5.375V2C0 1.45 0.196 0.979333 0.588 0.588C0.98 0.196666 1.45067 0.000666667 2 0H18C18.55 0 19.021 0.196 19.413 0.588C19.805 0.98 20.0007 1.45067 20 2V14C20 14.55 19.8043 15.021 19.413 15.413C19.0217 15.805 18.5507 16.0007 18 16H2Z" fill="currentColor"/>    <style>
        path { fill: #000; }
        @media (prefers-color-scheme: dark) {
            path { fill: #FFF; }
        }
    </style>
</svg>
